<?xml version="1.0" encoding="utf-8"?>
<!-- Generator: Adobe Illustrator 16.0.0, SVG Export Plug-In . SVG Version: 6.00 Build 0)  -->
<!DOCTYPE svg PUBLIC "-//W3C//DTD SVG 1.1//EN" "http://www.w3.org/Graphics/SVG/1.1/DTD/svg11.dtd">
<svg version="1.1" id="Layer_1" xmlns="http://www.w3.org/2000/svg" xmlns:xlink="http://www.w3.org/1999/xlink" x="0px" y="0px"
	 width="1920px" height="698px" viewBox="0 0 1920 698" enable-background="new 0 0 1920 698" xml:space="preserve">
<path fill="#FFFFFF" d="M649,107c-108.5,8.3-197.5,89.3-215.4,196c-8.399,50.4-1,99.801,22,145.9l8.2,16.4l-21,62
	c-11.5,34.1-20.7,62.6-20.6,63.199c0.199,0.7,25-6.8,65.1-19.699L552.1,550l7,3.601c25.8,12.899,55.6,21.5,85.4,24.5
	c14.6,1.399,42.899,0.7,57.399-1.601c66.4-10.399,123.8-46.899,161-102.5c57.4-85.6,52.3-199.5-12.6-279.7
	c-32.3-39.899-76-68-125.8-80.699C702.9,108,671.3,105.3,649,107z M686.5,146c60.1,6.7,112.3,38.7,145.8,89.5
	c7,10.601,16.3,29.5,20.5,41.5c24.8,71,7.7,148.601-44.7,203.4c-20.3,21.2-49.3,39.5-78.6,49.6
	c-53.601,18.4-115.801,11.801-163.7-17.3c-4.2-2.6-8-4.7-8.5-4.7c-0.7,0-63.5,19.9-72.5,22.9c-2.6,0.9-2.4,0.3,9.6-35.5l12.2-36.5
	l-4.1-6.2c-62.5-93.2-34.9-219,60.8-278.4C599.4,152,645.4,141.4,686.5,146z"/>
<path fill="#FFFFFF" d="M582,235.9c-7.5,2.3-17.101,11.2-22.8,21.3c-5.601,9.9-7.7,18.8-7.7,32.8c0,13.2,1.399,19.7,7.2,33.5
	C566.1,341.1,586.2,369,606.9,390.4c25.4,26.1,47.101,40.6,79.2,52.7c22.9,8.6,30.5,10.399,45.4,10.399
	c12.3,0,13.399-0.199,21.1-3.3c10.2-4.1,21.4-11.899,25.8-18c5.9-8,10.601-29.6,7.7-35c-1.2-2.2-22.5-13.4-43.3-22.8
	c-8.2-3.7-11-4.5-14.101-4.101C723.8,371,723.3,371.4,713.5,384.6c-10,13.399-11.801,14.8-18.101,14.1c-5.899-0.6-24.8-10.1-36.1-18
	c-15.5-11-33.601-30.5-43.7-47.3c-4.9-8-4.7-10,1.7-17.4c10.899-12.8,13.7-17,13.7-20.899c0-5.7-20.2-53.801-24-57.4
	c-2.9-2.6-3.5-2.7-12.801-2.6C588.9,235.1,583.4,235.5,582,235.9z"/>
</svg>
